<?xml version="1.0" standalone="no"?>
<!DOCTYPE svg PUBLIC "-//W3C//DTD SVG 20010904//EN"
 "http://www.w3.org/TR/2001/REC-SVG-20010904/DTD/svg10.dtd">
<svg version="1.0" xmlns="http://www.w3.org/2000/svg"
 width="300.000000pt" height="139.000000pt" viewBox="0 0 300.000000 139.000000"
 preserveAspectRatio="xMidYMid meet">
<metadata>
Created by potrace 1.10, written by Peter Selinger 2001-2011
</metadata>
<g transform="translate(0.000000,139.000000) scale(0.100000,-0.100000)"
fill="#eeeeee" stroke="none">
<path d="M496 1274 c-130 -31 -267 -125 -336 -228 -19 -28 -45 -84 -58 -125
-22 -66 -25 -94 -26 -216 0 -104 5 -157 18 -205 57 -208 173 -325 364 -366
132 -27 343 -13 515 36 l37 11 0 300 0 299 -227 -2 -228 -3 0 -105 0 -105 113
-3 112 -3 0 -110 c0 -95 -2 -111 -17 -117 -10 -4 -65 -7 -123 -7 -94 1 -110 3
-156 27 -29 15 -66 44 -83 65 -72 86 -99 298 -53 413 45 113 141 210 236 240
76 24 217 5 339 -45 14 -6 22 4 43 51 29 67 56 126 61 136 5 10 -60 36 -147
59 -92 23 -294 25 -384 3z"/>
<path d="M1220 695 l0 -575 125 0 125 0 0 204 0 203 128 6 c142 6 197 20 278
74 98 64 136 147 137 298 1 122 -17 184 -75 250 -84 96 -163 115 -485 115
l-233 0 0 -575z m446 364 c114 -29 151 -155 72 -245 -46 -52 -81 -66 -180 -72
l-88 -5 0 167 0 166 76 0 c41 0 95 -5 120 -11z"/>
<path d="M2375 1263 c-119 -26 -199 -83 -241 -170 -25 -49 -29 -70 -29 -138 1
-96 23 -149 98 -232 40 -43 75 -66 197 -128 149 -75 193 -110 206 -162 10 -38
-20 -91 -61 -109 -71 -29 -220 -9 -365 50 -35 14 -67 26 -72 26 -4 0 -8 -49
-8 -109 l0 -109 35 -17 c89 -41 137 -50 290 -50 171 0 219 12 302 75 88 66
138 199 114 305 -11 49 -19 59 -84 115 -40 34 -90 71 -112 82 -122 62 -259
145 -280 170 -52 61 -22 152 59 183 59 23 137 16 246 -20 45 -15 85 -23 90
-19 10 11 70 155 70 169 0 14 -129 62 -218 80 -69 14 -192 18 -237 8z"/>
</g>
</svg>
