<?xml version="1.0" standalone="no"?>
<!DOCTYPE svg PUBLIC "-//W3C//DTD SVG 20010904//EN"
 "http://www.w3.org/TR/2001/REC-SVG-20010904/DTD/svg10.dtd">
<svg version="1.0" xmlns="http://www.w3.org/2000/svg"
 width="300.000000pt" height="158.000000pt" viewBox="0 0 300.000000 158.000000"
 preserveAspectRatio="xMidYMid meet">
<metadata>
Created by potrace 1.10, written by Peter Selinger 2001-2011
</metadata>
<g transform="translate(0.000000,158.000000) scale(0.100000,-0.100000)"
fill="#eeeeee" stroke="none">
<path d="M424 1168 c-109 -161 -234 -344 -276 -407 l-78 -114 0 -89 0 -88 270
0 270 0 0 -130 0 -131 133 3 132 3 3 128 3 127 64 0 65 0 0 105 0 105 -75 0
-75 0 0 390 0 390 -118 0 -119 0 -199 -292z m186 -273 l0 -225 -146 0 c-80 0
-144 4 -142 8 4 12 282 441 286 442 1 0 2 -101 2 -225z"/>
<path d="M2337 1242 c-82 -119 -205 -299 -273 -400 l-124 -183 0 -95 0 -94
265 0 264 0 3 -127 3 -128 125 0 125 0 3 128 3 127 69 0 70 0 0 105 0 105 -70
0 -70 0 -2 388 -3 387 -120 2 -120 3 -148 -218z m130 -569 c-3 -2 -68 -2 -146
-1 l-142 3 143 220 143 219 3 -218 c1 -121 1 -221 -1 -223z"/>
<path d="M1010 1153 c1 -5 67 -109 149 -233 l148 -225 -158 -237 c-88 -131
-159 -240 -159 -243 0 -3 65 -5 144 -5 l144 0 98 160 c55 88 101 160 104 160
3 0 50 -72 104 -160 l99 -160 144 0 c78 0 143 2 143 5 0 3 -68 107 -151 232
-84 125 -154 234 -156 243 -2 8 60 112 138 230 78 118 144 221 146 228 4 9
-28 12 -138 12 l-144 0 -90 -150 c-49 -83 -92 -150 -95 -150 -3 0 -45 68 -95
150 l-90 150 -142 0 c-79 0 -143 -3 -143 -7z"/>
</g>
</svg>
