<?xml version="1.0"?>
<svg xmlns="http://www.w3.org/2000/svg" xmlns:xlink="http://www.w3.org/1999/xlink" xmlns:svgjs="http://svgjs.com/svgjs" version="1.1" width="512" height="512" x="0" y="0" viewBox="0 0 511 511.99899" style="enable-background:new 0 0 512 512" xml:space="preserve" class=""><g transform="matrix(1,0,0,1,95,0)"><path xmlns="http://www.w3.org/2000/svg" d="m245.660156 186.921875c0-4.003906-1.589844-7.84375-4.421875-10.675781l-69.070312-69.070313c-3.433594-3.429687-8.308594-5-13.097657-4.226562-4.789062.777343-8.914062 3.8125-11.085937 8.15625-1.050781 2.09375-1.59375 4.40625-1.59375 6.75v101.6875l-43.296875-43.296875c-5.894531-5.894532-15.453125-5.894532-21.351562 0-5.894532 5.898437-5.894532 15.457031 0 21.355468l58.398437 58.394532-58.398437 58.394531c-5.894532 5.898437-5.894532 15.457031 0 21.355469 5.898437 5.894531 15.457031 5.894531 21.351562 0l43.296875-43.296875.003906 101.691406c0 6.105469 3.675781 11.609375 9.320313 13.949219 1.867187.773437 3.828125 1.148437 5.773437 1.148437 3.929688 0 7.792969-1.535156 10.679688-4.421875l69.070312-69.074218c2.832031-2.832032 4.425781-6.671876 4.425781-10.675782s-1.589843-7.84375-4.425781-10.675781l-58.394531-58.394531 58.394531-58.398438c2.832031-2.828125 4.421875-6.667968 4.421875-10.675781zm-36.449218 138.144531-32.625 32.625v-65.25zm-32.625-105.519531v-65.246094l32.625 32.621094zm0 0" fill="#eeeeee" data-original="#000000" style="" class=""/><path xmlns="http://www.w3.org/2000/svg" d="m161.496094 0c-88.773438 0-160.996094 72.222656-160.996094 160.996094v190.007812c0 88.773438 72.222656 160.996094 160.996094 160.996094 88.773437 0 160.996094-72.222656 160.996094-160.996094v-190.007812c0-88.773438-72.222657-160.996094-160.996094-160.996094zm130.800781 351.003906c0 72.125-58.679687 130.800782-130.800781 130.800782s-130.800782-58.675782-130.800782-130.800782v-190.007812c0-72.125 58.679688-130.800782 130.800782-130.800782s130.800781 58.675782 130.800781 130.800782zm0 0" fill="#eeeeee" data-original="#000000" style="" class=""/></g></svg>
