<?xml version="1.0"?>
<svg xmlns="http://www.w3.org/2000/svg" xmlns:xlink="http://www.w3.org/1999/xlink" xmlns:svgjs="http://svgjs.com/svgjs" version="1.1" width="512" height="512" x="0" y="0" viewBox="0 0 58 60" style="enable-background:new 0 0 512 512" xml:space="preserve" class=""><g><g xmlns="http://www.w3.org/2000/svg" id="033---Reversing-Camera"><path id="Shape" d="m34 52.762c.0035093 1.2094013.7300574 2.2994203 1.845 2.768 4.5709737 1.8857815 9.6986052 1.9069597 14.285.059 1.1291692-.460903 1.8679378-1.5583893 1.87-2.778v-18.174l.568.273c.4900626.2010898 1.0519172-.0148613 1.2811415-.4924121.2292244-.4775507.0462837-1.0510035-.4171415-1.3075879l-1.463-.7c-.3066463-3.8822227-3.3700447-6.9764705-7.249-7.322-1.127282-.106835-2.2619318-.1111861-3.39-.013-3.907901.3130877-7.0056075 3.4256462-7.3 7.335l-1.462.7c-.4188774.2028627-.6424255.6678848-.5392383 1.1217173.1031872.4538326.5058263.7764795.9712383.7782827.3577018-.0440005.7001552-.1710506 1-.371zm2-10.527c4.5205637-1.6514406 9.4794363-1.6514406 14 0v7.53c-4.5204721 1.6519579-9.4795279 1.6519579-14 0zm14-2.1c-4.5470878-1.4940343-9.4529122-1.4940343-14 0v-4.112c4.5661182-1.3700019 9.4338818-1.3700019 14 0zm-.636 13.6c-4.0862344 1.659916-8.6621914 1.6415906-12.735-.051-.374818-.1543406-.6220302-.5167087-.629-.922v-.9c4.5427386 1.5209617 9.4572614 1.5209617 14 0v.95c-.0042853.4098957-.2554164.7767208-.636.929zm-.929-24.733h-2.435v-1.581c.9297193.3209214 1.7660378.8659881 2.435 1.587zm-4.435-1.952v1.958c0 1.1045695.8954305 2 2 2h3.63c.3225913.9479563.4484894 1.9517387.37 2.95-4.5820863-1.2565163-9.4179137-1.2565163-14 0-.0802047-.9982513.043992-2.0023735.365-2.951h3.635c1.1045695 0 2-.8954305 2-2v-1.966c.6655513-.057872 1.3349965-.0548595 2 .009zm-4 .358v1.6h-2.449c.6706822-.7285671 1.5123856-1.2784754 2.449-1.6z" fill="#eeeeee" data-original="#000000" style="" class=""/><path id="Shape" d="m14.875 16.362c-.8530344.8579206-1.1101828 2.1428753-.653 3.263 1.8644641 4.5880597 5.486416 8.2398975 10.059 10.142 1.1244421.4727152 2.4230668.2190745 3.287-.642l12.851-12.85.208.593c.1184335.3370801.4077007.5853714.7588374.651345s.7107969-.0603935.9435001-.3315c.2327031-.2711065.3030961-.6457649.1846625-.982845l-.538-1.531c2.5256033-2.9619719 2.5467279-7.31364786.05-10.3-.7217534-.87240204-1.5206504-1.67799276-2.387-2.407-2.9848347-2.54212575-7.3764821-2.53151688-10.349.025l-1.53-.538c-.3427896-.14416984-.737268-.08621713-1.0241086.15045151-.2868407.23666864-.4186623.61295946-.3422233.97689172.0764391.36393225.3485125.65539035.7063319.75665677l.594.209zm17.061-13.7 2.564 2.56c.7809997.78076388 2.0470003.78076388 2.828 0l1.39-1.391c.4976841.44501601.9685123.91918333 1.41 1.42l-1.385 1.386c-.7807639.7809997-.7807639 2.0470003 0 2.828l2.566 2.567c-.4419223.8991724-1.0629653 1.6985313-1.825 2.349-2.35073-4.1294301-5.7705699-7.54926996-9.9-9.9.6490492-.76398885 1.4500432-1.38448675 2.352-1.822zm9.943 7.114-1.722-1.725 1.122-1.122c.4300693.88449642.6361149 1.86115249.6 2.844zm-6.765 8.978c-2.158246-4.2724424-5.6275576-7.741754-9.9-9.9l2.911-2.911c4.1975164 2.26033728 7.6396627 5.7024836 9.9 9.9zm-11.382-8.421c4.3650428 2.0280875 7.8719125 5.5349572 9.9 9.9l-5.324 5.324c-4.3652437-2.0278002-7.8721998-5.5347563-9.9-9.9zm1.314 17.586c-4.0772372-1.6949146-7.3066474-4.9509725-8.968-9.042-.1572041-.3757423-.074079-.8090957.211-1.1l.637-.637c2.1583612 4.272359 5.627641 7.7416388 9.9 9.9l-.672.672c-.2938194.2860799-.7307115.3677015-1.108.207zm12-25.242-1.132 1.132-1.714-1.716c.091 0 .18-.026.271-.026.8931623.00811119 1.7731179.2165667 2.575.61z" fill="#eeeeee" data-original="#000000" style="" class=""/><path id="Shape" d="m57 31c-.5522847 0-1 .4477153-1 1v26h-26v-26c0-.5522847-.4477153-1-1-1s-1 .4477153-1 1v26h-12v-1.047c0-.5522847-.4477153-1-1-1s-1 .4477153-1 1v1.047h-12v-26c0-.5522847-.44771525-1-1-1s-1 .4477153-1 1v26c0 1.1045695.8954305 2 2 2h54c1.1045695 0 2-.8954305 2-2v-26c0-.5522847-.4477153-1-1-1z" fill="#eeeeee" data-original="#000000" style="" class=""/><path id="Shape" d="m14 46.718c0 .5522847.4477153 1 1 1s1-.4477153 1-1v-2.047c0-.5522847-.4477153-1-1-1s-1 .4477153-1 1z" fill="#eeeeee" data-original="#000000" style="" class=""/><path id="Shape" d="m15.611 31.44c-.2591202-.0568013-.5301918-.0083183-.7535588.1347791-.2233669.1430974-.3807242.3690823-.4374412.6282209-.1551135.705936-.2676498 1.4205583-.337 2.14-.0527432.5497995.3502005 1.0382568.9 1.091s1.0382568-.3502005 1.091-.9c.0620976-.6387394.1622758-1.2732016.3-1.9.057695-.2595577.0096441-.5314061-.1335318-.7554587-.143176-.2240526-.3696873-.3818597-.6294682-.4385413z" fill="#eeeeee" data-original="#000000" style="" class=""/><path id="Shape" d="m17.643 29.006c.129-.262.266-.521.409-.776.2706195-.4815923.0995923-1.0913805-.382-1.362s-1.0913805-.0995923-1.362.382c-.1613333.2866667-.314.5766667-.458.87-.1609277.3206288-.1377735.7028949.0606773 1.0017559.1984508.2988609.5417871.4685185.8997375.4445998s.6756616-.2377482.8325852-.5603557z" fill="#eeeeee" data-original="#000000" style="" class=""/><path id="Shape" d="m14 40.577c0 .5522847.4477153 1 1 1s1-.4477153 1-1v-2.047c0-.5522847-.4477153-1-1-1s-1 .4477153-1 1z" fill="#eeeeee" data-original="#000000" style="" class=""/><path id="Shape" d="m14 52.859c0 .5522847.4477153 1 1 1s1-.4477153 1-1v-2.047c0-.5522847-.4477153-1-1-1s-1 .4477153-1 1z" fill="#eeeeee" data-original="#000000" style="" class=""/><path id="Shape" d="m8.491 9.254c-2.51194671 2.306149-3.97464448 5.537061-4.05013978 8.9462397-.07549529 3.4091788 1.24274348 6.7016738 3.65013978 9.1167603.347.347.591.64 1.067.64.41528251.0004887.78764862-.2557401.9355797-.6437816.1479311-.3880415.0406368-.8271287-.2695797-1.1032184-2.15758232-1.9922143-3.38461963-4.7953217-3.38461963-7.732s1.22703731-5.7397857 3.38461963-7.732c.4120044-.3680978.4475978-1.00049557.07949998-1.41249998-.36809778-.41200442-1.00049555-.44759779-1.41249998-.07950002z" fill="#eeeeee" data-original="#000000" style="" class=""/><path id="Shape" d="m12.62 13.628c.2804535-.2215047.4214319-.5758036.36983-.9294358-.051602-.3536321-.2879446-.6528725-.62-.785-.3320555-.1321275-.7093765-.0770689-.98983.1444358-1.78945458 1.540026-2.85617717 3.7561172-2.94366312 6.1153912-.08748594 2.3592741.81217978 4.6482823 2.48266312 6.3166088.2568767.350397.6491014.576806 1.081.624.4260004.0002149.8053689-.2694729.9451439-.6718898s.0092665-.8492048-.3251439-1.1131102c-1.3877628-1.2302267-2.1821193-2.9959533-2.1821193-4.8505s.7943565-3.6202733 2.1821193-4.8505z" fill="#eeeeee" data-original="#000000" style="" class=""/></g></g></svg>
