<?xml version="1.0" standalone="no"?>
<!DOCTYPE svg PUBLIC "-//W3C//DTD SVG 20010904//EN"
 "http://www.w3.org/TR/2001/REC-SVG-20010904/DTD/svg10.dtd">
<svg version="1.0" xmlns="http://www.w3.org/2000/svg"
 width="129.000000pt" height="107.000000pt" viewBox="0 0 129.000000 107.000000"
 preserveAspectRatio="xMidYMid meet">
<metadata>
Created by potrace 1.10, written by Peter Selinger 2001-2011
</metadata>
<g transform="translate(0.000000,107.000000) scale(0.100000,-0.100000)"
fill="#eeeeee" stroke="none">
<path d="M600 1044 c-59 -16 -151 -63 -187 -97 -49 -45 -5 -110 50 -74 24 15
25 14 55 -29 33 -46 42 -50 73 -34 24 14 24 47 -1 85 -11 17 -20 33 -20 37 0
8 94 38 117 38 9 0 13 -14 13 -44 0 -64 7 -76 45 -76 38 0 45 12 45 76 0 30 4
44 13 44 18 0 117 -30 117 -35 0 -3 -9 -19 -20 -37 -24 -40 -26 -84 -4 -92 36
-14 53 -5 79 40 l27 46 49 -48 c54 -53 54 -51 -10 -86 -21 -12 -31 -25 -31
-41 0 -48 38 -60 92 -27 18 11 36 20 40 20 8 0 38 -94 38 -117 0 -9 -16 -13
-55 -13 -49 0 -57 -3 -64 -22 -17 -47 4 -68 72 -68 l49 0 -7 -32 c-4 -18 -11
-50 -17 -70 l-11 -36 -48 26 c-55 31 -82 24 -87 -21 -3 -21 5 -31 40 -54 24
-15 45 -28 47 -29 1 -2 -4 -13 -13 -26 -20 -28 -20 -42 0 -62 27 -27 50 -18
86 32 48 67 75 136 92 234 14 79 14 92 -4 176 -42 209 -185 367 -375 417 -74
19 -212 18 -285 -1z"/>
<path d="M28 999 c-10 -6 -18 -22 -18 -37 0 -23 12 -35 81 -79 l81 -51 -31 -7
c-45 -10 -62 -48 -35 -76 l21 -20 93 23 c55 14 97 30 103 39 12 19 -18 179
-39 207 -10 13 -17 15 -41 6 -25 -9 -28 -14 -27 -51 0 -28 -3 -40 -10 -36 -6
4 -41 26 -78 50 -72 47 -74 47 -100 32z"/>
<path d="M400 746 c-27 -34 -7 -58 106 -130 105 -67 112 -73 117 -109 7 -52
32 -86 74 -104 69 -28 147 9 161 77 11 54 3 87 -28 119 -34 34 -75 44 -124 30
-36 -10 -41 -8 -147 60 -113 73 -138 82 -159 57z m369 -215 c13 -24 -9 -57
-33 -48 -23 9 -31 34 -16 52 17 20 37 19 49 -4z"/>
<path d="M230 660 c-18 -34 -23 -142 -10 -217 13 -83 63 -193 108 -241 25 -26
34 -31 54 -23 25 9 37 56 19 74 -18 18 -13 24 29 48 47 27 55 44 35 75 -19 29
-35 30 -77 4 -46 -28 -54 -26 -66 23 -24 94 -26 87 32 87 56 0 76 12 76 45 0
33 -20 45 -76 45 l-53 0 6 35 c3 21 1 41 -7 50 -18 21 -57 19 -70 -5z"/>
<path d="M640 150 l0 -140 35 0 c33 0 35 2 35 35 0 19 4 35 8 35 5 0 17 -16
28 -35 16 -30 23 -35 56 -35 43 0 46 7 19 51 l-20 32 25 29 c28 34 31 76 9
118 -21 41 -43 50 -124 50 l-71 0 0 -140z m137 54 c9 -24 -10 -49 -41 -52 -24
-3 -26 0 -26 32 0 33 2 36 30 36 19 0 33 -6 37 -16z"/>
</g>
</svg>
