<?xml version="1.0" standalone="no"?>
<!DOCTYPE svg PUBLIC "-//W3C//DTD SVG 20010904//EN"
 "http://www.w3.org/TR/2001/REC-SVG-20010904/DTD/svg10.dtd">
<svg version="1.0" xmlns="http://www.w3.org/2000/svg"
 width="300.000000pt" height="416.000000pt" viewBox="0 0 300.000000 416.000000"
 preserveAspectRatio="xMidYMid meet">
<metadata>
Created by potrace 1.10, written by Peter Selinger 2001-2011
</metadata>
<g transform="translate(0.000000,416.000000) scale(0.100000,-0.100000)"
fill="#eeeeee" stroke="none">
<path d="M1295 4114 c-279 -42 -498 -136 -684 -293 -127 -108 -237 -295 -271
-463 -16 -77 -20 -136 -20 -340 l0 -247 -35 -7 c-20 -3 -61 -23 -93 -44 -138
-88 -188 -223 -148 -392 8 -31 24 -75 37 -97 36 -65 130 -120 207 -121 l32 0
0 -715 c0 -477 4 -732 11 -767 6 -29 27 -85 46 -125 107 -221 371 -373 773
-445 121 -21 578 -18 705 6 379 70 643 226 756 448 48 95 49 105 49 875 l0
723 23 0 c79 0 189 66 224 134 46 89 56 221 23 309 -36 95 -134 185 -227 209
l-43 10 0 250 c0 263 -9 340 -52 457 -110 298 -399 520 -797 613 -67 15 -130
20 -286 23 -110 2 -213 1 -230 -1z m393 -230 c322 -48 572 -204 683 -429 60
-120 68 -188 69 -536 l0 -297 78 -28 c145 -51 171 -65 193 -101 20 -32 21 -39
10 -90 -7 -31 -19 -57 -28 -60 -13 -5 -169 17 -231 34 l-21 5 -3 -848 -3 -849
-27 -58 c-109 -233 -537 -375 -1048 -346 -171 10 -286 30 -426 75 -187 59
-308 147 -362 261 l-27 58 -3 843 c-2 655 -5 842 -15 842 -6 0 -61 -9 -121
-21 -125 -23 -126 -23 -145 53 -21 89 8 118 169 175 l110 38 0 303 c0 384 12
455 102 598 46 74 162 186 240 232 231 137 518 189 806 146z"/>
<path d="M1041 3645 c-113 -42 -194 -110 -274 -230 -44 -65 -31 -127 33 -160
16 -8 43 -15 61 -15 36 0 48 12 144 145 126 175 165 237 165 261 0 21 -5 24
-32 23 -18 0 -62 -11 -97 -24z"/>
<path d="M1810 3647 c0 -14 15 -47 33 -73 62 -92 206 -289 226 -311 35 -39
107 -26 148 27 36 46 -8 152 -103 248 -62 61 -177 120 -254 129 -48 6 -50 5
-50 -20z"/>
<path d="M1221 2739 c-80 -10 -179 -32 -252 -57 -65 -21 -149 -68 -149 -83 0
-5 19 -75 42 -155 41 -144 42 -146 67 -140 134 32 195 37 453 43 300 6 510 -6
628 -36 l68 -17 42 149 c23 82 39 155 36 162 -16 42 -227 113 -401 134 -103
12 -438 13 -534 0z"/>
<path d="M1287 2069 c-78 -8 -332 -55 -348 -65 -3 -2 -9 -43 -13 -91 -8 -96
-82 -940 -91 -1040 l-6 -61 73 -36 c158 -78 372 -112 658 -103 148 4 209 10
305 31 141 31 285 94 285 126 0 11 -16 194 -35 407 -19 213 -42 471 -51 573
-9 102 -19 188 -23 191 -12 12 -265 58 -376 69 -125 11 -250 11 -378 -1z m455
-230 c57 -6 105 -13 107 -15 2 -2 8 -48 12 -101 33 -386 59 -694 64 -729 l4
-42 -87 -21 c-224 -54 -499 -52 -700 4 l-58 16 4 67 c3 37 16 234 31 437 l26
370 85 11 c113 15 384 17 512 3z"/>
</g>
</svg>
