<?xml version="1.0" standalone="no"?>
<!DOCTYPE svg PUBLIC "-//W3C//DTD SVG 20010904//EN"
 "http://www.w3.org/TR/2001/REC-SVG-20010904/DTD/svg10.dtd">
<svg version="1.0" xmlns="http://www.w3.org/2000/svg"
 width="142.000000pt" height="142.000000pt" viewBox="0 0 142.000000 142.000000"
 preserveAspectRatio="xMidYMid meet">
<metadata>
Created by potrace 1.10, written by Peter Selinger 2001-2011
</metadata>
<g transform="translate(0.000000,142.000000) scale(0.100000,-0.100000)"
fill="#387742" stroke="none">
<path d="M640 1310 c-250 -33 -453 -210 -515 -450 -83 -317 116 -652 435 -735
317 -83 652 116 735 435 22 84 22 216 0 300 -75 289 -365 488 -655 450z m190
-91 c88 -20 172 -69 246 -143 74 -74 123 -158 143 -246 13 -58 13 -182 0 -240
-41 -179 -210 -348 -389 -389 -58 -13 -182 -13 -240 0 -179 41 -348 210 -389
389 -13 58 -13 182 0 240 41 177 210 348 385 389 54 12 190 13 244 0z"/>
<path d="M559 1146 c-192 -67 -309 -233 -309 -436 0 -261 199 -460 460 -460
261 0 460 199 460 460 0 206 -121 374 -317 439 -88 30 -206 28 -294 -3z m214
-205 c71 -27 112 -125 105 -251 -8 -138 -64 -210 -163 -210 -100 0 -154 68
-162 204 -11 165 50 266 159 266 20 0 48 -4 61 -9z"/>
<path d="M694 862 c-25 -17 -37 -61 -38 -142 -1 -94 14 -146 46 -156 33 -10
58 25 67 92 18 129 -23 241 -75 206z"/>
</g>
</svg>
