<svg xmlns="http://www.w3.org/2000/svg" viewBox="0 0 32.2 32.2"><style>.st0{display:none}.st1{display:inline}.st2{fill:#f4973b}.st3{display:inline;fill:#fff}.st4{fill:#fccc02}.st5{fill:#fff}.st6{fill:#9362a6}.st7{fill:#387742}</style><g id="_x33_" class="st0"><g class="st1"><g id="New_4_"><g id="critair-01_4_"><path class="st2" d="M16.1 30.6c-8 0-14.5-6.5-14.5-14.5S8.1 1.6 16.1 1.6s14.5 6.5 14.5 14.5-6.5 14.5-14.5 14.5zm0-27C9.2 3.6 3.6 9.2 3.6 16.1s5.6 12.5 12.5 12.5S28.6 23 28.6 16.1 23 3.6 16.1 3.6z" id="circle3635_4_"/><circle id="circle3637_4_" class="st2" cx="16.1" cy="16.1" r="11.1"/></g></g></g><path class="st3" d="M19.4 13.3c0 .6-.2 1.2-.6 1.6-.4.4-.9.8-1.6 1 1.7.2 2.5 1 2.5 2.4 0 .9-.4 1.7-1.1 2.2-.7.5-1.8.8-3.1.8-.5 0-1 0-1.5-.1s-1-.2-1.5-.4v-2.3c.4.2.9.4 1.3.5.5.1.9.2 1.3.2.6 0 1-.1 1.3-.3.3-.2.4-.4.4-.8 0-.3-.1-.5-.2-.6-.1-.1-.4-.3-.7-.3s-.7-.2-1.2-.2h-.6v-2h.6c1.4 0 2.1-.4 2.1-1.1 0-.3-.1-.5-.3-.6s-.5-.2-.8-.2c-.6 0-1.3.2-2 .6L12.5 12c.5-.4 1.1-.6 1.6-.8.6-.2 1.2-.2 1.9-.2 1 0 1.9.2 2.4.6.7.4 1 .9 1 1.7z"/></g><g id="_x32_"><g id="New_2_"><g id="critair-01_2_"><path class="st4" d="M16.1 30.6c-8 0-14.5-6.5-14.5-14.5S8.1 1.6 16.1 1.6s14.5 6.5 14.5 14.5-6.5 14.5-14.5 14.5zm0-27C9.2 3.6 3.6 9.2 3.6 16.1s5.6 12.5 12.5 12.5S28.6 23 28.6 16.1 23 3.6 16.1 3.6z" id="circle3635_1_"/><circle id="circle3637_1_" class="st4" cx="16.1" cy="16.1" r="11.1"/></g></g><path class="st5" d="M19.8 21.2h-7.3v-1.8l2.5-2.5c.7-.7 1.2-1.2 1.4-1.5.2-.3.4-.5.5-.7s.1-.4.1-.6c0-.3-.1-.5-.3-.6-.2-.2-.4-.2-.7-.2-.3 0-.6.1-1 .3-.3.2-.7.4-1.1.8l-1.5-1.7c.5-.5 1-.8 1.3-1 .4-.2.7-.4 1.2-.5.4-.1.9-.2 1.4-.2.7 0 1.2.1 1.7.3s.9.6 1.2 1c.3.4.4.9.4 1.4 0 .4 0 .8-.1 1.1s-.3.7-.5 1c-.2.3-.5.7-.8 1-.3.4-1.1 1-2.2 2v.2h3.8v2.2z"/><g><g id="New_3_"><g id="critair-01_3_"><path class="st4" d="M16.1 30.6c-8 0-14.5-6.5-14.5-14.5S8.1 1.6 16.1 1.6s14.5 6.5 14.5 14.5-6.5 14.5-14.5 14.5zm0-27C9.2 3.6 3.6 9.2 3.6 16.1s5.6 12.5 12.5 12.5S28.6 23 28.6 16.1 23 3.6 16.1 3.6z" id="circle3635_3_"/><circle id="circle3637_3_" class="st4" cx="16.1" cy="16.1" r="11.1"/></g></g><path class="st5" d="M19.8 21.2h-7.3v-1.8l2.5-2.5c.7-.7 1.2-1.2 1.4-1.5.2-.3.4-.5.5-.7s.1-.4.1-.6c0-.3-.1-.5-.3-.6-.2-.2-.4-.2-.7-.2-.3 0-.6.1-1 .3-.3.2-.7.4-1.1.8l-1.5-1.7c.5-.5 1-.8 1.3-1 .4-.2.7-.4 1.2-.5.4-.1.9-.2 1.4-.2.7 0 1.2.1 1.7.3s.9.6 1.2 1c.3.4.4.9.4 1.4 0 .4 0 .8-.1 1.1s-.3.7-.5 1c-.2.3-.5.7-.8 1-.3.4-1.1 1-2.2 2v.2h3.8v2.2z"/></g></g><g id="_x31_" class="st0"><g class="st1"><g id="New_1_"><g id="critair-01_1_"><path class="st6" d="M16.1 30.6c-8 0-14.5-6.5-14.5-14.5S8.1 1.6 16.1 1.6s14.5 6.5 14.5 14.5-6.5 14.5-14.5 14.5zm0-27C9.2 3.6 3.6 9.2 3.6 16.1s5.6 12.5 12.5 12.5S28.6 23 28.6 16.1 23 3.6 16.1 3.6z" id="circle3635_2_"/><circle id="circle3637_2_" class="st6" cx="16.1" cy="16.1" r="11.1"/></g></g><path class="st5" d="M18.2 21.1h-2.8v-5.3V14l-.6.6-1.1.9-1.4-1.7 3.4-2.8h2.4v10.1z"/></g></g><g id="_x30_" class="st0"><g class="st1"><g id="New"><g id="critair-01"><path class="st7" d="M16.1 30.6c-8 0-14.5-6.5-14.5-14.5S8.1 1.6 16.1 1.6s14.5 6.5 14.5 14.5-6.5 14.5-14.5 14.5zm0-27C9.2 3.6 3.6 9.2 3.6 16.1s5.6 12.5 12.5 12.5S28.6 23 28.6 16.1 23 3.6 16.1 3.6z" id="circle3635"/><circle id="circle3637" class="st7" cx="16.1" cy="16.1" r="11.1"/></g></g><path class="st5" d="M19.7 16.1c0 1.8-.3 3.1-.9 3.9-.6.8-1.5 1.2-2.7 1.2-1.2 0-2.1-.4-2.7-1.3-.6-.9-.9-2.1-.9-3.8 0-1.8.3-3.1.9-3.9.6-.8 1.5-1.2 2.7-1.2 1.2 0 2.1.4 2.7 1.3.6.8.9 2.1.9 3.8zm-4.5 0c0 1.1.1 1.9.2 2.3.1.4.4.6.7.6.3 0 .6-.2.7-.7.2-.3.2-1.1.2-2.2s-.1-1.9-.2-2.3c-.1-.4-.4-.7-.7-.7-.3 0-.6.2-.7.6-.2.5-.2 1.3-.2 2.4z"/></g></g></svg>