<?xml version="1.0" standalone="no"?>
<!DOCTYPE svg PUBLIC "-//W3C//DTD SVG 20010904//EN"
 "http://www.w3.org/TR/2001/REC-SVG-20010904/DTD/svg10.dtd">
<svg version="1.0" xmlns="http://www.w3.org/2000/svg"
 width="142.000000pt" height="142.000000pt" viewBox="0 0 142.000000 142.000000"
 preserveAspectRatio="xMidYMid meet">
<metadata>
Created by potrace 1.10, written by Peter Selinger 2001-2011
</metadata>
<g transform="translate(0.000000,142.000000) scale(0.050000,-0.050000)"
fill="#930e2b" stroke="none">
<path d="M1251 2618 c-338 -51 -668 -259 -832 -524 -36 -57 -85 -135 -110
-174 -222 -346 -99 -990 260 -1352 752 -760 2057 -219 2057 852 0 729 -663
1306 -1375 1198z m408 -180 c275 -63 576 -304 697 -559 503 -1059 -840 -2018
-1668 -1191 -736 737 -44 1984 971 1750z"/>
<path d="M1118 2293 c-977 -345 -733 -1793 302 -1793 809 0 1225 956 675 1553
-240 260 -640 358 -977 240z m502 -683 c0 -257 2 -270 40 -270 33 0 40 -13 40
-80 0 -67 -7 -80 -40 -80 -35 0 -40 -13 -40 -100 l0 -100 -110 0 -110 0 0 100
0 100 -190 0 -190 0 0 76 c0 86 112 283 282 497 l101 127 109 0 108 0 0 -270z"/>
<path d="M1304 1480 l-87 -130 84 -6 c105 -8 102 -12 95 139 l-6 127 -86 -130z"/>
</g>
</svg>
