<?xml version="1.0" standalone="no"?>
<!DOCTYPE svg PUBLIC "-//W3C//DTD SVG 20010904//EN"
 "http://www.w3.org/TR/2001/REC-SVG-20010904/DTD/svg10.dtd">
<svg version="1.0" xmlns="http://www.w3.org/2000/svg"
 width="142.000000pt" height="142.000000pt" viewBox="0 0 142.000000 142.000000"
 preserveAspectRatio="xMidYMid meet">
<metadata>
Created by potrace 1.10, written by Peter Selinger 2001-2011
</metadata>
<g transform="translate(0.000000,142.000000) scale(0.100000,-0.100000)"
fill="#677284" stroke="none">
<path d="M610 1303 c-180 -30 -334 -140 -429 -306 -58 -102 -74 -181 -67 -314
13 -231 133 -416 334 -514 167 -81 401 -75 558 16 124 72 222 190 271 327 23
64 27 88 27 198 0 105 -4 135 -23 190 -74 209 -249 363 -451 399 -103 18 -130
18 -220 4z m203 -78 c270 -57 462 -330 417 -593 -47 -281 -319 -484 -590 -443
-284 42 -494 317 -451 591 34 219 201 399 414 445 81 18 128 18 210 0z"/>
<path d="M590 1152 c-226 -59 -371 -284 -332 -514 34 -200 180 -346 379 -380
307 -51 576 218 525 525 -46 272 -304 439 -572 369z m270 -252 l0 -40 -79 0
c-73 0 -79 -2 -85 -22 -12 -48 -8 -55 37 -62 89 -14 139 -65 139 -144 0 -67
-24 -109 -75 -133 -47 -21 -140 -25 -199 -9 -35 10 -37 13 -31 43 8 46 15 50
64 37 72 -20 139 7 139 55 0 35 -33 56 -110 68 l-71 11 6 85 c3 47 8 101 11
119 l5 32 124 0 125 0 0 -40z"/>
</g>
</svg>
