<?xml version="1.0"?>
<svg xmlns="http://www.w3.org/2000/svg" xmlns:xlink="http://www.w3.org/1999/xlink" xmlns:svgjs="http://svgjs.com/svgjs" version="1.1" width="512" height="512" x="0" y="0" viewBox="0 0 512 512" style="enable-background:new 0 0 512 512" xml:space="preserve" class=""><g><g xmlns="http://www.w3.org/2000/svg"><path d="m165.354 411.37 45.527 45.498 33.868-33.868-45.513-45.512z" fill="#eeeeee" data-original="#000000" style="" class=""/><path d="m110.237 466.488 45.512 45.512 33.895-33.895-45.526-45.498z" fill="#eeeeee" data-original="#000000" style="" class=""/><path d="m383.034 149.062c-5.044-5.044-12.038-7.663-19.175-7.193l-17.112 1.134 1.134-17.111c.474-7.142-2.148-14.131-7.193-19.176-9.659-9.659-25.381-9.659-35.043 0-11.968 11.969-13.681 40.377-5.048 82.438 42.06 8.633 70.469 6.921 82.437-5.049 4.68-4.68 7.258-10.903 7.258-17.522s-2.578-12.841-7.258-17.521z" fill="#eeeeee" data-original="#000000" style="" class=""/><path d="m444.466 45.284c-60.378-60.379-158.271-60.379-218.65 0-52.754 52.754-59.412 134.145-19.982 194.132l-183.584 183.584 44.5 44.5 183.585-183.585c59.987 39.431 141.378 32.773 194.132-19.981 60.378-60.379 60.378-158.272-.001-218.65zm-40.195 160.058c-12.916 12.916-31.888 19.318-58.145 19.318-17.246 0-37.634-2.762-61.513-8.252l-9.163-2.107-2.107-9.163c-13.85-60.237-10.334-98.259 11.065-119.659 21.372-21.372 56.145-21.372 77.517 0 7.591 7.592 12.704 17.164 14.871 27.474 10.311 2.167 19.884 7.28 27.475 14.871 10.353 10.353 16.054 24.117 16.054 38.759s-5.701 28.407-16.054 38.759z" fill="#eeeeee" data-original="#000000" style="" class=""/></g></g></svg>
