<?xml version="1.0"?>
<svg xmlns="http://www.w3.org/2000/svg" xmlns:xlink="http://www.w3.org/1999/xlink" xmlns:svgjs="http://svgjs.com/svgjs" version="1.1" width="512" height="512" x="0" y="0" viewBox="0 0 511.99956 511" style="enable-background:new 0 0 512 512" xml:space="preserve" class=""><g><path xmlns="http://www.w3.org/2000/svg" d="m496.886719 82.183594-22.679688-22.679688-45.835937 45.835938c3.054687 6.234375 4.679687 13.128906 4.679687 20.273437 0 12.332031-4.804687 23.925781-13.523437 32.644531s-20.3125 13.519532-32.644532 13.519532c-12.332031 0-23.925781-4.800782-32.644531-13.519532-18-18-18-47.289062 0-65.289062 8.71875-8.71875 20.3125-13.519531 32.644531-13.519531 7.148438 0 14.042969 1.621093 20.277344 4.675781l45.832032-45.835938-22.675782-22.675781c-11.527344-11.527343-28.039062-16.960937-44.167968-14.550781l-93.96875 14.0625c-10.882813 1.628906-21.160157 6.8125-28.941407 14.59375l-248.097656 248.097656c-20.171875 20.167969-20.1875 52.964844-.046875 73.109375l146.480469 146.476563c10.0625 10.066406 23.285156 15.097656 36.511719 15.097656 13.25 0 26.503906-5.046875 36.59375-15.140625l248.097656-248.097656c7.785156-7.785157 12.96875-18.0625 14.59375-28.941407l14.066406-93.96875c2.414062-16.132812-3.027344-32.644531-14.550781-44.167968zm-353.460938 265.675781 124.875-124.875c5.855469-5.855469 15.355469-5.855469 21.210938 0 5.859375 5.859375 5.859375 15.355469 0 21.214844l-124.871094 124.875c-2.929687 2.929687-6.769531 4.394531-10.609375 4.394531-3.835938 0-7.675781-1.464844-10.605469-4.394531-5.859375-5.859375-5.859375-15.355469 0-21.214844zm-28.726562-28.746094c-2.929688 2.929688-6.769531 4.394531-10.605469 4.394531-3.839844 0-7.679688-1.464843-10.605469-4.394531-5.859375-5.859375-5.859375-15.355469 0-21.214843l69.046875-69.046876c5.855469-5.855468 15.355469-5.855468 21.210938 0 5.859375 5.859376 5.859375 15.355469 0 21.214844zm224.761719-24.964843-124.871094 124.875c-2.929688 2.929687-6.769532 4.394531-10.609375 4.394531-3.835938 0-7.675781-1.464844-10.605469-4.394531-5.859375-5.859376-5.859375-15.355469 0-21.214844l124.871094-124.875c5.859375-5.855469 15.359375-5.855469 21.214844 0 5.859374 5.859375 5.859374 15.359375 0 21.214844zm0 0" fill="#eeeeee" data-original="#000000" style="" class=""/><path xmlns="http://www.w3.org/2000/svg" d="m402.886719 125.613281c0 8.839844-7.164063 16.003907-16 16.003907-8.835938 0-16-7.164063-16-16.003907 0-8.835937 7.164062-16 16-16 8.835937 0 16 7.164063 16 16zm0 0" fill="#eeeeee" data-original="#000000" style="" class=""/></g></svg>
